<?xml version="1.0" standalone="yes"?>

<svg version="1.1" viewBox="0.0 0.0 526.8556430446195 521.6482939632546" fill="none" stroke="none" stroke-linecap="square" stroke-miterlimit="10" xmlns="http://www.w3.org/2000/svg" xmlns:xlink="http://www.w3.org/1999/xlink"><clipPath id="p.0"><path d="m0 0l526.85565 0l0 521.6483l-526.85565 0l0 -521.6483z" clip-rule="nonzero"></path></clipPath><g clip-path="url(#p.0)"><path fill="#000000" fill-opacity="0.0" d="m0 0l526.85565 0l0 521.6483l-526.85565 0z" fill-rule="nonzero"></path><path fill="#999999" fill-opacity="0.3115" d="m16.87501 258.4709l250.17323 -250.14172l250.1417 250.14172l-250.17319 250.14175z" fill-rule="nonzero"></path><path fill="#000000" fill-opacity="0.0" d="m29.401575 101.00787l470.4252 0l0 314.96063l-470.4252 0z" fill-rule="nonzero"></path><path fill="#999999" d="m145.27434 306.84756l-93.84376 -41.203125l0 -9.578125l93.84376 -46.765625l0 14.546875l-76.35938 36.234375l76.35938 32.03125l0 14.734375zm77.35547 -85.15625q21.09375 0 32.75 14.40625q11.67186 14.40625 11.67186 40.78125q0 26.359375 -11.76561 40.96875q-11.765625 14.59375 -32.65625 14.59375q-10.453125 0 -19.09375 -3.859375q-8.640625 -3.859375 -14.5 -11.859375l-1.171875 0l-3.421875 13.765625l-11.625 0l0 -151.95312l16.21875 0l0 36.90625q0 12.40625 -0.78125 22.265625l0.78125 0q11.328125 -16.015625 33.59375 -16.015625zm-2.34375 13.578125q-16.609375 0 -23.9375 9.53125q-7.3125 9.515625 -7.3125 32.078125q0 22.546875 7.515625 32.265625q7.515625 9.71875 24.125 9.71875q14.9375 0 22.25 -10.890625q7.328125 -10.890625 7.328125 -31.296875q0 -20.890625 -7.328125 -31.140625q-7.3125 -10.265625 -22.640625 -10.265625zm144.1367 66.015625q0 14.9375 -11.140625 23.046875q-11.125 8.109375 -31.25 8.109375q-21.28125 0 -33.203125 -6.734375l0 -15.046875q7.71875 3.90625 16.546875 6.15625q8.84375 2.25 17.046875 2.25q12.703125 0 19.53125 -4.046875q6.84375 -4.0625 6.84375 -12.359375q0 -6.25 -5.421875 -10.6875q-5.421875 -4.453125 -21.140625 -10.515625q-14.9375 -5.5625 -21.25 -9.703125q-6.296875 -4.15625 -9.375 -9.421875q-3.0625 -5.28125 -3.0625 -12.609375q0 -13.078125 10.640625 -20.640625q10.640625 -7.578125 29.203125 -7.578125q17.28125 0 33.78125 7.03125l-5.765625 13.1875q-16.109375 -6.640625 -29.1875 -6.640625q-11.53125 0 -17.390625 3.609375q-5.859375 3.609375 -5.859375 9.953125q0 4.296875 2.1875 7.328125q2.203125 3.03125 7.078125 5.765625q4.890625 2.734375 18.765625 7.90625q19.046875 6.9375 25.734375 13.96875q6.6875 7.03125 6.6875 17.671875zm19.332031 -9.171875l76.46875 -31.84375l-76.46875 -36.421875l0 -14.546875l93.84375 46.765625l0 9.578125l-93.84375 41.203125l0 -14.734375z" fill-rule="nonzero"></path><path fill="#000000" fill-opacity="0.0" d="m16.0 105.76378l486.07874 0l0 289.4488l-486.07874 0z" fill-rule="nonzero"></path><path fill="#ffffff" d="m139.69952 298.84756l-93.84375 -41.203125l0 -9.578125l93.84375 -46.765625l0 14.546875l-76.359375 36.234375l76.359375 32.03125l0 14.734375z" fill-rule="nonzero"></path><path fill="#ff4280" d="m217.055 213.69131q21.09375 0 32.75 14.40625q11.671875 14.40625 11.671875 40.78125q0 26.359375 -11.765625 40.96875q-11.765625 14.59375 -32.65625 14.59375q-10.453125 0 -19.09375 -3.859375q-8.640625 -3.859375 -14.5 -11.859375l-1.171875 0l-3.421875 13.765625l-11.625 0l0 -151.95312l16.21875 0l0 36.90625q0 12.40625 -0.78125 22.265625l0.78125 0q11.328125 -16.015625 33.59375 -16.015625zm-2.34375 13.578125q-16.609375 0 -23.9375 9.53125q-7.3125 9.515625 -7.3125 32.078125q0 22.546875 7.515625 32.265625q7.515625 9.71875 24.125 9.71875q14.9375 0 22.25 -10.890625q7.328125 -10.890625 7.328125 -31.296875q0 -20.890625 -7.328125 -31.140625q-7.3125 -10.265625 -22.640625 -10.265625z" fill-rule="nonzero"></path><path fill="#6ae0e8" d="m358.84796 293.28506q0 14.9375 -11.140625 23.046875q-11.125 8.109375 -31.25 8.109375q-21.28125 0 -33.203125 -6.734375l0 -15.046875q7.71875 3.90625 16.546875 6.15625q8.84375 2.25 17.046875 2.25q12.703125 0 19.53125 -4.046875q6.84375 -4.0625 6.84375 -12.359375q0 -6.25 -5.421875 -10.6875q-5.421875 -4.453125 -21.140625 -10.515625q-14.9375 -5.5625 -21.25 -9.703125q-6.296875 -4.15625 -9.375 -9.421875q-3.0625 -5.28125 -3.0625 -12.609375q0 -13.078125 10.640625 -20.640625q10.640625 -7.578125 29.203125 -7.578125q17.28125 0 33.78125 7.03125l-5.765625 13.1875q-16.109375 -6.640625 -29.1875 -6.640625q-11.53125 0 -17.390625 3.609375q-5.859375 3.609375 -5.859375 9.953125q0 4.296875 2.1875 7.328125q2.203125 3.03125 7.078125 5.765625q4.890625 2.734375 18.765625 7.90625q19.046875 6.9375 25.734375 13.96875q6.6875 7.03125 6.6875 17.671875z" fill-rule="nonzero"></path><path fill="#ffffff" d="m378.18 284.1132l76.46875 -31.84375l-76.46875 -36.421875l0 -14.546875l93.84375 46.765625l0 9.578125l-93.84375 41.203125l0 -14.734375z" fill-rule="nonzero"></path></g></svg>

